<?xml version="1.0" encoding="UTF-8" standalone="no"?>
<!-- Created with Inkscape (http://www.inkscape.org/) -->

<svg
   version="1.1"
   id="svg2"
   xml:space="preserve"
   width="2949.5332"
   height="1709.9067"
   viewBox="0 0 2949.5332 1709.9067"
   sodipodi:docname="Lido_Logo_MainLogo_BlueGreen.eps"
   xmlns:inkscape="http://www.inkscape.org/namespaces/inkscape"
   xmlns:sodipodi="http://sodipodi.sourceforge.net/DTD/sodipodi-0.dtd"
   xmlns="http://www.w3.org/2000/svg"
   xmlns:svg="http://www.w3.org/2000/svg"><defs
     id="defs6" /><sodipodi:namedview
     id="namedview4"
     pagecolor="#ffffff"
     bordercolor="#666666"
     borderopacity="1.0"
     inkscape:pageshadow="2"
     inkscape:pageopacity="0.0"
     inkscape:pagecheckerboard="0" /><g
     id="g8"
     inkscape:groupmode="layer"
     inkscape:label="ink_ext_XXXXXX"
     transform="matrix(1.3333333,0,0,-1.3333333,0,1709.9067)"><g
       id="g10"
       transform="scale(0.1)"><path
         d="m 5573.84,8186.67 v -943.36 h -943.36 c 30.65,506.31 437.05,912.7 943.36,943.36"
         style="fill:#4bbc5e;fill-opacity:1;fill-rule:nonzero;stroke:none"
         id="path12" /><path
         d="m 5578.31,4637.32 c -528.78,29.67 -949.89,469.1 -949.89,1005.15 v 1242.41 h 949.89 V 4637.32"
         style="fill:#afc9ec;fill-opacity:1;fill-rule:nonzero;stroke:none"
         id="path14" /><path
         d="m 5936.75,7243.31 v 945.41 h 1237.92 c 534.55,0 972.94,-418.75 1004.81,-945.41 H 5936.75"
         style="fill:#afc9ec;fill-opacity:1;fill-rule:nonzero;stroke:none"
         id="path16" /><path
         d="m 5936.75,7243.31 v 945.41 h 1237.92 c 534.55,0 972.94,-418.75 1004.81,-945.41 z m 2244.8,-1303.86 h -2244.8 v 945.43 h 2244.8 z M 7174.67,4635.61 H 5936.75 v 945.42 h 2242.73 c -31.87,-526.67 -470.26,-945.42 -1004.81,-945.42 z m -1596.36,1.71 c -528.78,29.67 -949.89,469.1 -949.89,1005.15 v 1242.41 h 949.89 z m -4.47,3549.35 v -943.36 h -943.36 c 30.65,506.31 437.05,912.7 943.36,943.36 z m 1600.83,360.48 H 4923.65 c -360.44,0 -653.67,-293.22 -653.67,-653.65 V 6884.88 h 0.03 V 5642.47 c 0,-752.81 612.45,-1365.29 1365.28,-1365.29 h 1421.61 117.77 711.65 c 360.44,0 653.65,293.23 653.65,653.64 v 711.65 117.77 1421.61 c 0,752.84 -612.46,1365.3 -1365.3,1365.3"
         style="fill:#040606;fill-opacity:1;fill-rule:nonzero;stroke:none"
         id="path18" /><path
         d="m 12801.2,7124.13 c 196.5,0 355.8,159.31 355.8,355.83 0,196.51 -159.3,355.82 -355.8,355.82 -196.6,0 -355.9,-159.31 -355.9,-355.82 0,-196.52 159.3,-355.83 355.9,-355.83"
         style="fill:#040606;fill-opacity:1;fill-rule:nonzero;stroke:none"
         id="path20" /><path
         d="m 16907.7,5351.95 c -323,0 -585.7,262.7 -585.7,585.6 0,322.91 262.7,585.61 585.7,585.61 322.9,0 585.6,-262.7 585.6,-585.61 0,-322.9 -262.7,-585.6 -585.6,-585.6 z m 0,1529.41 c -520.5,0 -943.8,-423.39 -943.8,-943.81 0,-520.41 423.3,-943.8 943.8,-943.8 520.4,0 943.8,423.39 943.8,943.8 0,520.42 -423.4,943.81 -943.8,943.81"
         style="fill:#040606;fill-opacity:1;fill-rule:nonzero;stroke:none"
         id="path22" /><path
         d="m 12978.3,6884.72 h -357.9 l -0.1,0.16 -259.5,-157.31 -0.8,-0.48 -136,-82.49 -260.2,-157.78 171.2,-282.35 485,294.09 V 5347.49 h -656.2 v -28.1 -330.2 h 1670.7 v 330.2 28.1 h -656.2 v 1537.23"
         style="fill:#040606;fill-opacity:1;fill-rule:nonzero;stroke:none"
         id="path24" /><path
         d="M 10321.6,7835.78 H 9963.26 V 4989.19 h 1682.84 v 358.3 h -1324.5 v 2488.29"
         style="fill:#040606;fill-opacity:1;fill-rule:nonzero;stroke:none"
         id="path26" /><path
         d="m 14690.7,5351.95 c -322.9,0 -585.6,262.7 -585.6,585.6 0,322.91 262.7,585.61 585.6,585.61 322.9,0 585.6,-262.7 585.6,-585.61 0,-322.9 -262.7,-585.6 -585.6,-585.6 z m 615.4,2483.83 V 6652.3 c -165.4,142.56 -380.4,229.06 -615.4,229.06 -520.4,0 -943.8,-423.39 -943.8,-943.81 0,-520.41 423.4,-943.8 943.8,-943.8 235,0 450,86.5 615.4,229.06 v -233.62 0 h 358.3 v 2846.59 h -358.3 v 0"
         style="fill:#040606;fill-opacity:1;fill-rule:nonzero;stroke:none"
         id="path28" /></g></g></svg>
