<?xml version="1.0" encoding="UTF-8" standalone="no"?>
<!-- Created with Inkscape (http://www.inkscape.org/) -->

<svg
   version="1.1"
   id="svg2"
   xml:space="preserve"
   width="1708"
   height="1707.9867"
   viewBox="0 0 1708 1707.9867"
   sodipodi:docname="Lido_Logo_SecondaryLogo_BlueGreen.eps"
   xmlns:inkscape="http://www.inkscape.org/namespaces/inkscape"
   xmlns:sodipodi="http://sodipodi.sourceforge.net/DTD/sodipodi-0.dtd"
   xmlns="http://www.w3.org/2000/svg"
   xmlns:svg="http://www.w3.org/2000/svg"><defs
     id="defs6" /><sodipodi:namedview
     id="namedview4"
     pagecolor="#ffffff"
     bordercolor="#666666"
     borderopacity="1.0"
     inkscape:pageshadow="2"
     inkscape:pageopacity="0.0"
     inkscape:pagecheckerboard="0" /><g
     id="g8"
     inkscape:groupmode="layer"
     inkscape:label="ink_ext_XXXXXX"
     transform="matrix(1.3333333,0,0,-1.3333333,0,1707.9867)"><g
       id="g10"
       transform="scale(0.1)"><path
         d="m 5573.84,8179.45 v -943.37 h -943.36 c 30.65,506.31 437.05,912.71 943.36,943.37"
         style="fill:#4bbc5e;fill-opacity:1;fill-rule:nonzero;stroke:none"
         id="path12" /><path
         d="m 5578.31,4630.1 c -528.78,29.66 -949.89,469.09 -949.89,1005.15 v 1242.4 h 949.89 V 4630.1"
         style="fill:#afc9ec;fill-opacity:1;fill-rule:nonzero;stroke:none"
         id="path14" /><path
         d="m 5936.75,7236.08 v 945.42 h 1237.92 c 534.55,0 972.94,-418.76 1004.81,-945.42 H 5936.75"
         style="fill:#afc9ec;fill-opacity:1;fill-rule:nonzero;stroke:none"
         id="path16" /><path
         d="m 5936.75,7236.08 v 945.42 h 1237.92 c 534.55,0 972.94,-418.76 1004.81,-945.42 z m 2244.8,-1303.85 h -2244.8 v 945.42 h 2244.8 z M 7174.67,4628.39 H 5936.75 v 945.42 h 2242.73 c -31.87,-526.67 -470.26,-945.42 -1004.81,-945.42 z m -1596.36,1.71 c -528.78,29.66 -949.89,469.09 -949.89,1005.15 v 1242.4 h 949.89 z m -4.47,3549.35 v -943.37 h -943.36 c 30.65,506.31 437.05,912.71 943.36,943.37 z m 1600.83,360.48 H 4923.65 c -360.44,0 -653.67,-293.22 -653.67,-653.66 V 6877.65 h 0.03 v -1242.4 c 0,-752.82 612.45,-1365.29 1365.28,-1365.29 h 1421.61 117.77 711.65 c 360.44,0 653.65,293.23 653.65,653.64 v 711.65 117.77 1421.61 c 0,752.83 -612.46,1365.3 -1365.3,1365.3"
         style="fill:#040606;fill-opacity:1;fill-rule:nonzero;stroke:none"
         id="path18" /></g></g></svg>
